<svg viewBox="0 0 330.0000305175781 200.00001525878906" xmlns="http://www.w3.org/2000/svg"><g><g><g><g><g><line x1="41.171875" y1="177" x2="36.171875" y2="177" style="visibility: inherit;" fill="rgb(0, 0, 0)" stroke="rgb(204, 204, 204)" stroke-width="1px"></line><line x1="41.171875" y1="154.875" x2="36.171875" y2="154.875" style="visibility: inherit;" fill="rgb(0, 0, 0)" stroke="rgb(204, 204, 204)" stroke-width="1px"></line><line x1="41.171875" y1="132.75" x2="36.171875" y2="132.75" style="visibility: inherit;" fill="rgb(0, 0, 0)" stroke="rgb(204, 204, 204)" stroke-width="1px"></line><line x1="41.171875" y1="110.625" x2="36.171875" y2="110.625" style="visibility: inherit;" fill="rgb(0, 0, 0)" stroke="rgb(204, 204, 204)" stroke-width="1px"></line><line x1="41.171875" y1="88.5" x2="36.171875" y2="88.5" style="visibility: inherit;" fill="rgb(0, 0, 0)" stroke="rgb(204, 204, 204)" stroke-width="1px"></line><line x1="41.171875" y1="66.37500000000001" x2="36.171875" y2="66.37500000000001" style="visibility: inherit;" fill="rgb(0, 0, 0)" stroke="rgb(204, 204, 204)" stroke-width="1px"></line><line x1="41.171875" y1="44.24999999999998" x2="36.171875" y2="44.24999999999998" style="visibility: inherit;" fill="rgb(0, 0, 0)" stroke="rgb(204, 204, 204)" stroke-width="1px"></line><line x1="41.171875" y1="22.12500000000002" x2="36.171875" y2="22.12500000000002" style="visibility: inherit;" fill="rgb(0, 0, 0)" stroke="rgb(204, 204, 204)" stroke-width="1px"></line><line x1="41.171875" y1="0" x2="36.171875" y2="0" style="visibility: inherit;" fill="rgb(0, 0, 0)" stroke="rgb(204, 204, 204)" stroke-width="1px"></line></g><g transform="translate(31.171875, 0)"><text x="0" y="177" dx="0em" dy="0.3em" style="text-anchor: end; visibility: hidden; font-family: Roboto, sans-serif; font-size: 12px; font-weight: 200;" fill="rgb(33, 33, 33)" stroke="none" stroke-width="1px">0.2</text><text x="0" y="154.875" dx="0em" dy="0.3em" style="text-anchor: end; visibility: inherit; font-family: Roboto, sans-serif; font-size: 12px; font-weight: 200;" fill="rgb(33, 33, 33)" stroke="none" stroke-width="1px">0.3</text><text x="0" y="132.75" dx="0em" dy="0.3em" style="text-anchor: end; visibility: hidden; font-family: Roboto, sans-serif; font-size: 12px; font-weight: 200;" fill="rgb(33, 33, 33)" stroke="none" stroke-width="1px">0.4</text><text x="0" y="110.625" dx="0em" dy="0.3em" style="text-anchor: end; visibility: inherit; font-family: Roboto, sans-serif; font-size: 12px; font-weight: 200;" fill="rgb(33, 33, 33)" stroke="none" stroke-width="1px">0.5</text><text x="0" y="88.5" dx="0em" dy="0.3em" style="text-anchor: end; visibility: hidden; font-family: Roboto, sans-serif; font-size: 12px; font-weight: 200;" fill="rgb(33, 33, 33)" stroke="none" stroke-width="1px">0.6</text><text x="0" y="66.37500000000001" dx="0em" dy="0.3em" style="text-anchor: end; visibility: inherit; font-family: Roboto, sans-serif; font-size: 12px; font-weight: 200;" fill="rgb(33, 33, 33)" stroke="none" stroke-width="1px">0.7</text><text x="0" y="44.24999999999998" dx="0em" dy="0.3em" style="text-anchor: end; visibility: hidden; font-family: Roboto, sans-serif; font-size: 12px; font-weight: 200;" fill="rgb(33, 33, 33)" stroke="none" stroke-width="1px">0.8</text><text x="0" y="22.12500000000002" dx="0em" dy="0.3em" style="text-anchor: end; visibility: inherit; font-family: Roboto, sans-serif; font-size: 12px; font-weight: 200;" fill="rgb(33, 33, 33)" stroke="none" stroke-width="1px">0.9</text><text x="0" y="0" dx="0em" dy="0.3em" style="text-anchor: end; visibility: hidden; font-family: Roboto, sans-serif; font-size: 12px; font-weight: 200;" fill="rgb(33, 33, 33)" stroke="none" stroke-width="1px">1</text></g><line x1="41.171875" y1="0" x2="41.171875" y2="177" fill="rgb(0, 0, 0)" stroke="rgb(204, 204, 204)" stroke-width="1px"></line></g></g><g transform="translate(41, 0)" clip-path="url(#clip_0)"><clipPath id="clip_0"><rect width="288" height="177"></rect></clipPath><g><g><g><line x1="0" y1="0" x2="0" y2="177" fill="rgb(0, 0, 0)" stroke="rgb(66, 66, 66)" stroke-width="1px" opacity="0.25"></line><line x1="19.255208333333332" y1="0" x2="19.255208333333332" y2="177" fill="rgb(0, 0, 0)" stroke="rgb(66, 66, 66)" stroke-width="1px" opacity="0.25"></line><line x1="38.510416666666664" y1="0" x2="38.510416666666664" y2="177" fill="rgb(0, 0, 0)" stroke="rgb(66, 66, 66)" stroke-width="1px" opacity="0.25"></line><line x1="57.765625" y1="0" x2="57.765625" y2="177" fill="rgb(0, 0, 0)" stroke="rgb(66, 66, 66)" stroke-width="1px" opacity="0.25"></line><line x1="77.02083333333333" y1="0" x2="77.02083333333333" y2="177" fill="rgb(0, 0, 0)" stroke="rgb(66, 66, 66)" stroke-width="1px" opacity="0.25"></line><line x1="96.27604166666667" y1="0" x2="96.27604166666667" y2="177" fill="rgb(0, 0, 0)" stroke="rgb(66, 66, 66)" stroke-width="1px" opacity="0.25"></line><line x1="115.53125" y1="0" x2="115.53125" y2="177" fill="rgb(0, 0, 0)" stroke="rgb(66, 66, 66)" stroke-width="1px" opacity="0.25"></line><line x1="134.78645833333334" y1="0" x2="134.78645833333334" y2="177" fill="rgb(0, 0, 0)" stroke="rgb(66, 66, 66)" stroke-width="1px" opacity="0.25"></line><line x1="154.04166666666666" y1="0" x2="154.04166666666666" y2="177" fill="rgb(0, 0, 0)" stroke="rgb(66, 66, 66)" stroke-width="1px" opacity="0.25"></line><line x1="173.29687500000003" y1="0" x2="173.29687500000003" y2="177" fill="rgb(0, 0, 0)" stroke="rgb(66, 66, 66)" stroke-width="1px" opacity="0.25"></line><line x1="192.55208333333331" y1="0" x2="192.55208333333331" y2="177" fill="rgb(0, 0, 0)" stroke="rgb(66, 66, 66)" stroke-width="1px" opacity="0.25"></line><line x1="211.80729166666666" y1="0" x2="211.80729166666666" y2="177" fill="rgb(0, 0, 0)" stroke="rgb(66, 66, 66)" stroke-width="1px" opacity="0.25"></line><line x1="231.0625" y1="0" x2="231.0625" y2="177" fill="rgb(0, 0, 0)" stroke="rgb(66, 66, 66)" stroke-width="1px" opacity="0.25"></line><line x1="250.31770833333337" y1="0" x2="250.31770833333337" y2="177" fill="rgb(0, 0, 0)" stroke="rgb(66, 66, 66)" stroke-width="1px" opacity="0.25"></line><line x1="269.57291666666663" y1="0" x2="269.57291666666663" y2="177" fill="rgb(0, 0, 0)" stroke="rgb(66, 66, 66)" stroke-width="1px" opacity="0.25"></line><line x1="288.828125" y1="0" x2="288.828125" y2="177" fill="rgb(0, 0, 0)" stroke="rgb(66, 66, 66)" stroke-width="1px" opacity="0.25"></line></g><g><line x1="0" y1="177" x2="288.828125" y2="177" fill="rgb(0, 0, 0)" stroke="rgb(66, 66, 66)" stroke-width="1px" opacity="0.25"></line><line x1="0" y1="154.875" x2="288.828125" y2="154.875" fill="rgb(0, 0, 0)" stroke="rgb(66, 66, 66)" stroke-width="1px" opacity="0.25"></line><line x1="0" y1="132.75" x2="288.828125" y2="132.75" fill="rgb(0, 0, 0)" stroke="rgb(66, 66, 66)" stroke-width="1px" opacity="0.25"></line><line x1="0" y1="110.625" x2="288.828125" y2="110.625" fill="rgb(0, 0, 0)" stroke="rgb(66, 66, 66)" stroke-width="1px" opacity="0.25"></line><line x1="0" y1="88.5" x2="288.828125" y2="88.5" fill="rgb(0, 0, 0)" stroke="rgb(66, 66, 66)" stroke-width="1px" opacity="0.25"></line><line x1="0" y1="66.37500000000001" x2="288.828125" y2="66.37500000000001" fill="rgb(0, 0, 0)" stroke="rgb(66, 66, 66)" stroke-width="1px" opacity="0.25"></line><line x1="0" y1="44.24999999999998" x2="288.828125" y2="44.24999999999998" fill="rgb(0, 0, 0)" stroke="rgb(66, 66, 66)" stroke-width="1px" opacity="0.25"></line><line x1="0" y1="22.12500000000002" x2="288.828125" y2="22.12500000000002" fill="rgb(0, 0, 0)" stroke="rgb(66, 66, 66)" stroke-width="1px" opacity="0.25"></line><line x1="0" y1="0" x2="288.828125" y2="0" fill="rgb(0, 0, 0)" stroke="rgb(66, 66, 66)" stroke-width="1px" opacity="0.25"></line></g></g></g><g><g><line x1="0" y1="221.25" x2="288.828125" y2="221.25" fill="rgb(0, 0, 0)" stroke="rgb(153, 153, 153)" stroke-width="1.5px"></line></g></g><g><g><line x1="19.255208333333332" y1="0" x2="19.255208333333332" y2="177" fill="rgb(0, 0, 0)" stroke="rgb(153, 153, 153)" stroke-width="1.5px"></line></g></g><g><g><g><g><g><path stroke="rgb(0, 119, 187)" stroke-width="2px" d="M26.836946614583336,186.86221976064357L28.203531539351854,168.4373895645265L29.53000144675926,151.64556170494401L30.904609375000003,148.32081789979412L32.26049696180556,160.80641296861918L33.643127893518525,163.2785596813021L34.95087745949074,137.48026661778164L36.25060402199074,158.65998267373107L38.053105468750005,182.5693985991649L39.406318721064814,154.44373915910916L40.64988425925926,122.58708061695599L41.92821614583333,116.27946222578048L43.17713035300926,121.60249959979475L44.44743923611111,142.37229315802742L45.704376446759255,146.48471228255661L46.942593315972225,153.87091708467227L48.15941550925926,155.33338563549114L49.389609375000006,155.62295440855328L50.603757233796294,155.68028902561957L51.83929976851852,149.11969546433983L53.09088831018519,154.3926437546653L54.294338831018514,155.4366875161498L55.52185836226852,155.6434081809237L56.76274956597222,168.82822785936742L57.96620008680556,164.86687898433968L59.20709129050926,150.93864027616638L60.43995949074075,161.32474064286586L61.627364004629634,163.38118851547236L62.89499855324074,157.21641937878957L64.13856409143519,155.99579508972636L65.3339916087963,142.61022513777266L66.57755714699074,146.53182281454613L67.80507667824075,134.16441281182807L69.02724754050926,144.8595519740091L70.22000072337963,146.97718952812093L71.41275390625,153.96842757929397L72.62957609953705,155.35269271342622L73.83302662037038,135.91094505180632L75.03380280671297,138.6334248302645L76.25329933449075,119.45663838002253L77.46744719328703,128.8035262937924L78.71636140046297,110.93837794254074L79.91713758680557,133.6888565426299L81.1205881076389,138.19345130544755L82.30799262152779,132.51341525302655L83.47132812500001,124.8168222991883L84.67210431134258,123.29289689432832L85.84613715277777,136.13505129508383L87.03889033564815,145.24973839369375L88.20222583912039,153.6263922546774L89.3521896701389,148.71302390369326L90.49413049768519,154.3121227856573L91.63874565972222,161.99269017974507L92.79673249421297,163.51344252377444L93.9600679976852,163.81455148789226L95.16084418402778,157.3022252473287L96.36964337384259,142.86889830897792L97.72820529513889,140.01109957518443L98.9156098090278,139.44525542589332L100.1110373263889,132.7612724688748L101.31448784722222,131.43784384338514L102.55537905092594,131.1758049755382L103.80429325810186,144.2678076224237L105.02913845486111,133.71613780378783L106.43583839699076,131.62690717969795L107.69010127314816,131.21323951612814L108.90424913194444,131.1313333187413L110.11839699074073,131.11511589165872L111.35393952546296,131.11190484109636L112.56006438078704,124.5393232376261L113.76351490162037,110.09406573741983L114.9669654224537,100.66195364872151L116.10890625,92.22245492789891L117.27224175347223,83.97949365391575L118.44092592592592,82.3473873216671L119.7058861400463,82.02423026788186L121.1179347511574,81.96024517123237L122.35347728587965,81.94757612209577L123.58901982060185,81.94506765036672L124.86200303819446,88.5165115002247L126.11626591435186,89.81765738249655L127.34378544560185,90.07528426718638L128.56328197337965,90.12629439035497L129.7881271701389,83.56445386748204L130.9755316840278,75.69325834029571L132.20305121527778,67.56282109865252L133.44929108796296,59.38105399754686L134.65541594328704,51.18911300787048L135.8668894675926,49.567108691914555L137.09173466435186,49.24595183735528L138.37808955439817,49.182362780152516L139.659095775463,49.16977214682636L140.9160329861111,49.1672792014278L142.12483217592592,49.166785598238896L143.34700303819446,49.16668786480751L144.56917390046297,49.16666851358805L145.85018012152779,49.166664682046594L147.10176866319443,49.16666392340143L148.27580150462964,49.16666377318968L149.55680772569443,49.166663743447735L150.7228175636574,49.16666373755884L151.96638310185185,49.16666373639285L153.1430902777778,49.16666373616195L154.34386646412037,49.16666373611626L155.5794089988426,49.166663736107225L156.78285951967592,49.1666637361054L157.94619502314814,49.166663736105065L159.13894820601854,49.16666373610501L160.37716507523152,49.166663736104965L161.6127076099537,49.166663736104965L162.86429615162038,42.594723208844655L164.06774667245372,41.293478984447106L165.33805555555554,34.46388152435894L166.56557508680558,33.111621227261445L167.9589033564815,26.27193316117582L169.2720015914352,24.917674924090896L170.45405743634257,24.649531793148064L171.68425130208334,31.168379980481724L172.8689814814815,32.45911192157377L174.05638599537036,32.714676845910034L175.2999515335648,32.76527870092856L176.5729347511574,26.20335734096193L177.7389445891204,24.904096911688544L178.91297743055557,24.646843346692425L180.10840494791668,31.167847668083493L181.29848379629632,25.887065996458638L182.5367006655093,24.84147122547686L183.74015118634264,24.63444346082249L184.93825303819446,24.593451963420925L186.16844690393518,24.585335646935423L187.3692230902778,24.583728616271298L188.5780222800926,24.583410424199787L189.82961082175925,24.58334742216963L191.09457103587962,24.58333494776765L192.2686038773148,24.583332477836063L193.49077473958332,24.583331988789613L194.70492259837962,24.58333189195845L195.9270934606481,24.583331872785845L197.17868200231484,24.583331868989674L198.40085286458336,24.583331868238027L199.6979050925926,24.58333186808923L200.91740162037036,24.583331868059755L202.0994574652778,24.583331868053897L203.30825665509263,24.583331868052777L204.49298683449072,24.58333186805252L205.69376302083336,24.583331868052483L206.87047019675927,24.583331868052483L208.05252604166665,24.583331868052483L209.21051287615745,24.583331868052483L210.35780237268517,24.583331868052483L211.51578920717597,24.583331868052483L212.7031937210648,24.583331868052483L213.92269024884263,24.583331868052483L215.14753544560187,24.583331868052483L216.34831163194445,24.583331868052483L217.57048249421297,24.583331868052483L218.77393301504628,24.583331868052483L220.02284722222225,24.583331868052483L221.30385344328707,24.583331868052483L222.55811631944448,24.583331868052483L223.78296151620376,24.583331868052483L225.01315538194442,24.583331868052483L226.22462890625,24.583331868052483L227.4681944444444,24.583331868052483L228.67966796875004,24.583331868052483L229.87242115162042,24.583331868052483L231.0625,24.583331868052483L232.26327618634258,24.583331868052483L233.43196035879635,24.583331868052483L234.60599320023147,24.583331868052483L235.7613057002315,24.583331868052483L236.91929253472225,24.583331868052483L238.12541739004627,24.583331868052483L239.33956524884258,24.583331868052483L240.56441044560185,24.583331868052483L241.79727864583333,24.583331868052483L243.01410083912037,24.583331868052483L244.25766637731482,24.583331868052483L245.4825115740741,24.583331868052483L246.8170044849537,24.583331868052483L248.0498726851852,24.583331868052483L249.25064887152774,24.583331868052483L250.43805338541668,24.583331868052483L251.6602242476852,24.583331868052483L252.83960575810184,24.583331868052483L254.05375361689812,24.583331868052483L255.21976345486112,24.583331868052483L256.46600332754633,24.583331868052483L257.6748025173611,24.583331868052483L258.89429904513895,24.583331868052483L260.05763454861113,24.583331868052483L261.2931770833333,24.583331868052483L262.5340682870371,24.583331868052483L263.71612413194447,24.583331868052483L264.8981799768519,24.583331868052483L266.0695384837963,24.583331868052483L267.24089699074074,24.583331868052483" style="fill: none;" fill="none"></path></g><g><path stroke="rgb(255, 112, 67)" stroke-width="2px" d="M19.255208333333332,173.83928524330258L20.758184317129633,165.04486374529031L22.287903645833335,160.79883802181595L23.798902633101854,168.45249255428925L25.320598958333335,167.13920573327752L26.842295283564816,151.38761186442736L28.208880208333337,145.4531271342625L29.53535011574074,144.27816718316137L30.909958043981486,141.22897901102766L32.26584563078704,113.86803785915332L33.6484765625,112.67539519982758L34.956226128472224,115.25579943568681L36.25595269097223,114.35844573878921L38.053105468750005,118.40559088477706L39.4116673900463,116.39037817188151L40.65523292824074,99.0920760594801L41.93356481481481,112.56630223654439L43.18247902199074,119.4590201963422L44.45278790509259,102.51621463158739L45.709725115740746,101.97808658093497L46.94794198495371,96.23844232456922L48.164764178240745,92.28544531064045L49.39495804398149,81.6448411109921L50.606431568287036,85.17109638179835L51.841974103009264,90.09411081397185L53.09623697916667,92.47714668532493L54.2996875,97.1738036764067L55.52453269675926,109.36993685351267L56.770772569444446,89.25238632503466L57.97154875578703,83.86084288301046L59.212439959490744,85.60986473265798L60.445308159722224,88.77271851005648L61.63538700810186,90.80723199536696L62.89767288773148,72.90251252106307L64.14391276041667,84.84838375837795L65.33934027777778,87.21366626336629L66.58023148148149,76.41580239468081L67.80775101273149,86.95229416713698L69.03259620949075,79.18059817079568L70.22534939236111,74.82525491235182L71.41542824074074,69.73808105862607L72.63492476851853,75.77218397531054L73.83837528935186,76.96693635281406L75.03915147569445,56.079396727996105L76.25864800347223,67.4346695755092L77.47279586226851,78.13265595282171L78.72171006944444,73.2094939158074L79.92248625578705,65.19333391635925L81.12593677662038,66.4226816876368L82.31334129050927,62.441276657795896L83.4766767939815,71.51086925277785L84.67477864583334,70.49010113541597L85.85148582175927,68.87972061079277L87.04423900462963,69.96913370430296L88.20490017361112,68.77656905943239L89.35753833912037,61.4990673436287L90.49947916666667,65.69121690623616L91.6440943287037,52.43852526379093L92.80208116319444,69.53032447676489L93.96541666666667,61.64831091626054L95.16619285300926,65.72076713361726L96.37499204282408,56.66920267376342L97.73355396412038,57.69354036188068L98.92095847800925,59.30462766151345L100.11638599537036,63.84844941179178L101.3198365162037,61.93157866717856L102.56072771990742,54.510664343625855L103.8069675925926,61.49096566106728L105.01576678240743,68.5061602242573L106.39572337962963,79.75309011505654L107.69544994212964,63.672418512642274L108.90959780092592,59.080177097978684L110.12374565972222,58.1709132978753L111.3566138599537,57.99087906545482L112.56541304976851,52.322137385098976L113.76618923611112,59.64936888589338L114.96963975694445,58.283613271882395L116.11425491898147,53.78836719535719L117.2775904224537,48.67349258365137L118.4462745949074,64.56003211754339L119.60961009837963,56.4393771405808L121.12328342013889,54.831487455142216L122.35615162037037,62.96276765093025L123.59436848958333,74.43067192058676L124.86735170717593,64.02685872391997L126.12161458333334,53.51726135747507L127.34913411458334,51.43636107891899L128.56863064236111,49.61606380998215L129.79347583912036,52.072192401900935L130.98088035300927,63.824695667774066L132.20839988425925,66.15169131441695L133.45463975694443,46.89660429427415L134.65809027777777,55.75856588274179L135.87223813657408,47.65531290997072L137.09708333333333,50.275695286313095L138.38343822337964,64.87726825267042L139.6617701099537,67.76837970000915L140.9213816550926,58.482898399294584L142.13018084490741,53.82782565058483L143.3496773726852,62.76404261362791L144.5718482349537,58.900318669973835L145.85552879050928,55.31875387796207L147.10711733217593,61.65096738886584L148.2811501736111,51.63855585935161L149.56215639467592,60.92228818118101L150.7281662326389,62.760467180903206L151.97173177083334,67.34925308779924L153.14843894675928,56.99164289269147L154.34921513310186,53.532557060277384L155.58208333333334,66.9303953213009L156.78820818865742,52.68388258997378L157.9488693576389,54.08789953412203L159.144296875,58.59071077761725L160.38251374421299,60.89054641761202L161.61805627893517,50.07972406965781L162.86697048611111,59.20537104943607L164.07309534143516,66.64534405376875L165.34340422453707,59.66881635512172L166.57092375578702,55.47091641962133L167.9589033564815,57.45627968356055L169.27735026041668,63.48247651215711L170.45940610532406,61.859116033050924L171.6895999710648,58.72114320701959L172.87433015046295,52.4667296851288L174.0617346643519,49.820076794011676L175.30530020254633,56.33741343768982L176.5782834201389,56.219567079355336L177.7469675925926,54.787965063019584L178.918326099537,54.50450786378513L180.11107928240736,55.856651775722234L181.30383246527782,56.12437627028575L182.53937499999998,57.5856647339921L183.74282552083332,52.24190494746933L184.93825303819446,61.041751300628285L186.17379557291667,50.10966263649502L187.37457175925925,53.57820398333321L188.5833709490741,55.673243607392735L189.8376338252315,53.27151400178822L191.09991970486115,45.75460820015638L192.27127821180557,48.491076739987165L193.49612340856484,51.84944496204191L194.71027126736112,60.964044223513675L195.93244212962964,69.8101087934044L197.18403067129628,68.74508212707448L198.4062015335648,58.6762854798535L199.70325376157408,58.09094275748648L200.92275028935188,53.75021843350681L202.1048061342593,58.52384991969542L203.31627965856484,60.87730796774351L204.49833550347222,59.93501364747431L205.6991116898148,52.707076032338826L206.87581886574077,58.31730772426418L208.05787471064818,60.836412613048104L209.21586154513886,57.11036891607631L210.36315104166667,56.372612264075855L211.5211378761574,50.59344154464321L212.70854239004632,64.94018201181977L213.92803891782407,55.1063678058648L215.15288411458334,54.56755160686844L216.3536603009259,50.23603953451615L217.5758311631944,52.19494759535866L218.77928168402775,51.174542954019934L220.0281958912037,42.52286048152994L221.3092021122685,53.484285594035704L222.5634649884259,61.287742668648455L223.78831018518517,50.158368927363L225.01850405092594,46.546473912805745L226.22997757523152,52.87269261604276L227.47354311342593,51.30873646811537L228.68234230324072,59.448715504330664L229.87776982060186,51.202509986213684L231.06784866898147,56.6111352097458L232.2686248553241,50.64066908788586L233.4373090277778,50.866795809540314L234.61134186921296,63.58602714248666L235.766654369213,57.654792592905125L236.92464120370371,55.07213971470243L238.12809172453703,50.33594797986726L239.3449139178241,62.07265083482585L240.56975911458335,50.313780744266126L241.80262731481483,62.06826172217681L243.01944950810181,50.312911699961624L244.26301504629626,56.43499474906788L245.48786024305554,47.789245825503315L246.82235315393515,40.44429263630094L248.0552213541667,54.481008174463085L249.25599754050927,58.668546288404805L250.44340205439815,53.864583932628605L251.66557291666672,52.913399386184956L252.84495442708337,56.949891310940146L254.05910228587965,50.707742795922314L255.2251121238426,56.51317130606815L256.47135199652774,50.621272234957694L257.68015118634264,53.679502683828844L258.89964771412036,59.91812721504191L260.0629832175926,40.029263700261296L261.29852575231484,47.35745852900794L262.5394169560185,57.258083458604645L263.72147280092594,64.8515020970014L264.9035286458333,67.76327800118669L266.07488715277776,57.0736198255422L267.24624565972226,56.36533594415015" style="fill: none;" fill="none"></path></g></g></g></g><g opacity="0.2"><g><g><g><path stroke="rgb(0, 119, 187)" stroke-width="2px" d="M26.836946614583336,188.47222197800875L28.203531539351854,163.88889010995626L29.53000144675926,147.49999780207872L30.904609375000003,147.49999780207872L32.26049696180556,163.88889010995626L33.643127893518525,163.88889010995626L34.95087745949074,131.111112087965L36.25060402199074,163.88889010995626L38.053105468750005,188.47222197800875L39.406318721064814,147.49999780207872L40.64988425925926,114.72221978008747L41.92821614583333,114.72221978008747L43.17713035300926,122.91666593402624L44.44743923611111,147.49999780207872L45.704376446759255,147.49999780207872L46.942593315972225,155.6944439560175L48.15941550925926,155.6944439560175L49.389609375000006,155.6944439560175L50.603757233796294,155.6944439560175L51.83929976851852,147.49999780207872L53.09088831018519,155.6944439560175L54.294338831018514,155.6944439560175L55.52185836226852,155.6944439560175L56.76274956597222,172.08333296701312L57.96620008680556,163.88889010995626L59.20709129050926,147.49999780207872L60.43995949074075,163.88889010995626L61.627364004629634,163.88889010995626L62.89499855324074,155.6944439560175L64.13856409143519,155.6944439560175L65.3339916087963,139.30555824190378L66.57755714699074,147.49999780207872L67.80507667824075,131.111112087965L69.02724754050926,147.49999780207872L70.22000072337963,147.49999780207872L71.41275390625,155.6944439560175L72.62957609953705,155.6944439560175L73.83302662037038,131.111112087965L75.03380280671297,139.30555824190378L76.25329933449075,114.72221978008747L77.46744719328703,131.111112087965L78.71636140046297,106.52778021991253L79.91713758680557,139.30555824190378L81.1205881076389,139.30555824190378L82.30799262152779,131.111112087965L83.47132812500001,122.91666593402624L84.67210431134258,122.91666593402624L85.84613715277777,139.30555824190378L87.03889033564815,147.49999780207872L88.20222583912039,155.6944439560175L89.3521896701389,147.49999780207872L90.49413049768519,155.6944439560175L91.63874565972222,163.88889010995626L92.79673249421297,163.88889010995626L93.9600679976852,163.88889010995626L95.16084418402778,155.6944439560175L96.36964337384259,139.30555824190378L97.72820529513889,139.30555824190378L98.9156098090278,139.30555824190378L100.1110373263889,131.111112087965L101.31448784722222,131.111112087965L102.55537905092594,131.111112087965L103.80429325810186,147.49999780207872L105.02913845486111,131.111112087965L106.43583839699076,131.111112087965L107.69010127314816,131.111112087965L108.90424913194444,131.111112087965L110.11839699074073,131.111112087965L111.35393952546296,131.111112087965L112.56006438078704,122.91666593402624L113.76351490162037,106.52778021991253L114.9669654224537,98.33332747220993L116.10890625,90.13888791203499L117.27224175347223,81.94444835186005L118.44092592592592,81.94444835186005L119.7058861400463,81.94444835186005L121.1179347511574,81.94444835186005L122.35347728587965,81.94444835186005L123.58901982060185,81.94444835186005L124.86200303819446,90.13888791203499L126.11626591435186,90.13888791203499L127.34378544560185,90.13888791203499L128.56328197337965,90.13888791203499L129.7881271701389,81.94444835186005L130.9755316840278,73.74999560415745L132.20305121527778,65.5555560439825L133.44929108796296,57.361116483807564L134.65541594328704,49.166663736104965L135.8668894675926,49.166663736104965L137.09173466435186,49.166663736104965L138.37808955439817,49.166663736104965L139.659095775463,49.166663736104965L140.9160329861111,49.166663736104965L142.12483217592592,49.166663736104965L143.34700303819446,49.166663736104965L144.56917390046297,49.166663736104965L145.85018012152779,49.166663736104965L147.10176866319443,49.166663736104965L148.27580150462964,49.166663736104965L149.55680772569443,49.166663736104965L150.7228175636574,49.166663736104965L151.96638310185185,49.166663736104965L153.1430902777778,49.166663736104965L154.34386646412037,49.166663736104965L155.5794089988426,49.166663736104965L156.78285951967592,49.166663736104965L157.94619502314814,49.166663736104965L159.13894820601854,49.166663736104965L160.37716507523152,49.166663736104965L161.6127076099537,49.166663736104965L162.86429615162038,40.97222417593002L164.06774667245372,40.97222417593002L165.33805555555554,32.777771428227425L166.56557508680558,32.777771428227425L167.9589033564815,24.583331868052483L169.2720015914352,24.583331868052483L170.45405743634257,24.583331868052483L171.68425130208334,32.777771428227425L172.8689814814815,32.777771428227425L174.05638599537036,32.777771428227425L175.2999515335648,32.777771428227425L176.5729347511574,24.583331868052483L177.7389445891204,24.583331868052483L178.91297743055557,24.583331868052483L180.10840494791668,32.777771428227425L181.29848379629632,24.583331868052483L182.5367006655093,24.583331868052483L183.74015118634264,24.583331868052483L184.93825303819446,24.583331868052483L186.16844690393518,24.583331868052483L187.3692230902778,24.583331868052483L188.5780222800926,24.583331868052483L189.82961082175925,24.583331868052483L191.09457103587962,24.583331868052483L192.2686038773148,24.583331868052483L193.49077473958332,24.583331868052483L194.70492259837962,24.583331868052483L195.9270934606481,24.583331868052483L197.17868200231484,24.583331868052483L198.40085286458336,24.583331868052483L199.6979050925926,24.583331868052483L200.91740162037036,24.583331868052483L202.0994574652778,24.583331868052483L203.30825665509263,24.583331868052483L204.49298683449072,24.583331868052483L205.69376302083336,24.583331868052483L206.87047019675927,24.583331868052483L208.05252604166665,24.583331868052483L209.21051287615745,24.583331868052483L210.35780237268517,24.583331868052483L211.51578920717597,24.583331868052483L212.7031937210648,24.583331868052483L213.92269024884263,24.583331868052483L215.14753544560187,24.583331868052483L216.34831163194445,24.583331868052483L217.57048249421297,24.583331868052483L218.77393301504628,24.583331868052483L220.02284722222225,24.583331868052483L221.30385344328707,24.583331868052483L222.55811631944448,24.583331868052483L223.78296151620376,24.583331868052483L225.01315538194442,24.583331868052483L226.22462890625,24.583331868052483L227.4681944444444,24.583331868052483L228.67966796875004,24.583331868052483L229.87242115162042,24.583331868052483L231.0625,24.583331868052483L232.26327618634258,24.583331868052483L233.43196035879635,24.583331868052483L234.60599320023147,24.583331868052483L235.7613057002315,24.583331868052483L236.91929253472225,24.583331868052483L238.12541739004627,24.583331868052483L239.33956524884258,24.583331868052483L240.56441044560185,24.583331868052483L241.79727864583333,24.583331868052483L243.01410083912037,24.583331868052483L244.25766637731482,24.583331868052483L245.4825115740741,24.583331868052483L246.8170044849537,24.583331868052483L248.0498726851852,24.583331868052483L249.25064887152774,24.583331868052483L250.43805338541668,24.583331868052483L251.6602242476852,24.583331868052483L252.83960575810184,24.583331868052483L254.05375361689812,24.583331868052483L255.21976345486112,24.583331868052483L256.46600332754633,24.583331868052483L257.6748025173611,24.583331868052483L258.89429904513895,24.583331868052483L260.05763454861113,24.583331868052483L261.2931770833333,24.583331868052483L262.5340682870371,24.583331868052483L263.71612413194447,24.583331868052483L264.8981799768519,24.583331868052483L266.0695384837963,24.583331868052483L267.24089699074074,24.583331868052483" style="fill: none;" fill="none"></path></g><g><path stroke="rgb(255, 112, 67)" stroke-width="2px" d="M19.255208333333332,173.83928524330258L20.758184317129633,163.3035682886839L22.287903645833335,159.79166373610497L23.798902633101854,170.32738069072366L25.320598958333335,166.81547613814473L26.842295283564816,147.49999780207872L28.208880208333337,143.9880932494998L29.53535011574074,143.9880932494998L30.909958043981486,140.47618869692087L32.26584563078704,107.11309544742107L33.6484765625,112.38095227628946L34.956226128472224,115.89285682886839L36.25595269097223,114.13690455257893L38.053105468750005,119.40476138144732L39.4116673900463,115.89285682886839L40.65523292824074,94.821422919631L41.93356481481481,115.89285682886839L43.18247902199074,121.16071365773678L44.45278790509259,98.33332747220993L45.709725115740746,101.84523202478886L46.94794198495371,94.821422919631L48.164764178240745,91.30951836705208L49.39495804398149,79.01785902678967L50.606431568287036,86.04166813194752L51.841974103009264,91.30951836705208L53.09623697916667,93.06547723710537L54.2996875,98.33332747220993L55.52453269675926,112.38095227628946L56.770772569444446,84.28570926189423L57.97154875578703,82.52976357936859L59.212439959490744,86.04166813194752L60.445308159722224,89.55357268452644L61.63538700810186,91.30951836705208L62.89767288773148,68.48214536905289L64.14391276041667,87.79761381447315L65.33934027777778,87.79761381447315L66.58023148148149,73.74999560415745L67.80775101273149,89.55357268452644L69.03259620949075,77.26190015673637L70.22534939236111,73.74999560415745L71.41542824074074,68.48214536905289L72.63492476851853,77.26190015673637L73.83837528935186,77.26190015673637L75.03915147569445,50.92262260615826L76.25864800347223,70.23809105157852L77.47279586226851,80.7738047093153L78.72171006944444,71.99404992163181L79.92248625578705,63.21428194642067L81.12593677662038,66.7261864989996L82.31334129050927,61.458336263895035L83.4766767939815,73.74999560415745L84.67477864583334,70.23809105157852L85.85148582175927,68.48214536905289L87.04423900462963,70.23809105157852L88.20490017361112,68.48214536905289L89.35753833912037,59.70237739384174L90.49947916666667,66.7261864989996L91.6440943287037,49.166663736104965L92.80208116319444,73.74999560415745L93.96541666666667,59.70237739384174L95.16619285300926,66.7261864989996L96.37499204282408,54.43452715873718L97.73355396412038,57.94643171131611L98.92095847800925,59.70237739384174L100.11638599537036,64.97024081647396L101.3198365162037,61.458336263895035L102.56072771990742,52.67856828868389L103.8069675925926,63.21428194642067L105.01576678240743,70.23809105157852L106.39572337962963,82.52976357936859L107.69544994212964,59.70237739384174L108.90959780092592,57.94643171131611L110.12374565972222,57.94643171131611L111.3566138599537,57.94643171131611L112.56541304976851,50.92262260615826L113.76618923611112,61.458336263895035L114.96963975694445,57.94643171131611L116.11425491898147,52.67856828868389L117.2775904224537,47.41071805357933L118.4462745949074,68.48214536905289L119.60961009837963,54.43452715873718L121.12328342013889,54.43452715873718L122.35615162037037,64.97024081647396L123.59436848958333,77.26190015673637L124.86735170717593,61.458336263895035L126.12161458333334,50.92262260615826L127.34913411458334,50.92262260615826L128.56863064236111,49.166663736104965L129.79347583912036,52.67856828868389L130.98088035300927,66.7261864989996L132.20839988425925,66.7261864989996L133.45463975694443,42.14285463094711L134.65809027777777,57.94643171131611L135.87223813657408,45.65475918352604L137.09708333333333,50.92262260615826L138.38343822337964,68.48214536905289L139.6617701099537,68.48214536905289L140.9213816550926,56.19047284126282L142.13018084490741,52.67856828868389L143.3496773726852,64.97024081647396L144.5718482349537,57.94643171131611L145.85552879050928,54.43452715873718L147.10711733217593,63.21428194642067L148.2811501736111,49.166663736104965L149.56215639467592,63.21428194642067L150.7281662326389,63.21428194642067L151.97173177083334,68.48214536905289L153.14843894675928,54.43452715873718L154.34921513310186,52.67856828868389L155.58208333333334,70.23809105157852L156.78820818865742,49.166663736104965L157.9488693576389,54.43452715873718L159.144296875,59.70237739384174L160.38251374421299,61.458336263895035L161.61805627893517,47.41071805357933L162.86697048611111,61.458336263895035L164.07309534143516,68.48214536905289L165.34340422453707,57.94643171131611L166.57092375578702,54.43452715873718L167.9589033564815,57.94643171131611L169.27735026041668,64.97024081647396L170.45940610532406,61.458336263895035L171.6895999710648,57.94643171131611L172.87433015046295,50.92262260615826L174.0617346643519,49.166663736104965L175.30530020254633,57.94643171131611L176.5782834201389,56.19047284126282L177.7469675925926,54.43452715873718L178.918326099537,54.43452715873718L180.11107928240736,56.19047284126282L181.30383246527782,56.19047284126282L182.53937499999998,57.94643171131611L183.74282552083332,50.92262260615826L184.93825303819446,63.21428194642067L186.17379557291667,47.41071805357933L187.37457175925925,54.43452715873718L188.5833709490741,56.19047284126282L189.8376338252315,52.67856828868389L191.09991970486115,43.898813501000404L192.27127821180557,49.166663736104965L193.49612340856484,52.67856828868389L194.71027126736112,63.21428194642067L195.93244212962964,71.99404992163181L197.18403067129628,68.48214536905289L198.4062015335648,56.19047284126282L199.70325376157408,57.94643171131611L200.92275028935188,52.67856828868389L202.1048061342593,59.70237739384174L203.31627965856484,61.458336263895035L204.49833550347222,59.70237739384174L205.6991116898148,50.92262260615826L206.87581886574077,59.70237739384174L208.05787471064818,61.458336263895035L209.21586154513886,56.19047284126282L210.36315104166667,56.19047284126282L211.5211378761574,49.166663736104965L212.70854239004632,68.48214536905289L213.92803891782407,52.67856828868389L215.15288411458334,54.43452715873718L216.3536603009259,49.166663736104965L217.5758311631944,52.67856828868389L218.77928168402775,50.92262260615826L220.0281958912037,40.38690894842148L221.3092021122685,56.19047284126282L222.5634649884259,63.21428194642067L223.78831018518517,47.41071805357933L225.01850405092594,45.65475918352604L226.22997757523152,54.43452715873718L227.47354311342593,50.92262260615826L228.68234230324072,61.458336263895035L229.87776982060186,49.166663736104965L231.06784866898147,57.94643171131611L232.2686248553241,49.166663736104965L233.4373090277778,50.92262260615826L234.61134186921296,66.7261864989996L235.766654369213,56.19047284126282L236.92464120370371,54.43452715873718L238.12809172453703,49.166663736104965L239.3449139178241,64.97024081647396L240.56975911458335,47.41071805357933L241.80262731481483,64.97024081647396L243.01944950810181,47.41071805357933L244.26301504629626,57.94643171131611L245.48786024305554,45.65475918352604L246.82235315393515,38.63095007836819L248.0552213541667,57.94643171131611L249.25599754050927,59.70237739384174L250.44340205439815,52.67856828868389L251.66557291666672,52.67856828868389L252.84495442708337,57.94643171131611L254.05910228587965,49.166663736104965L255.2251121238426,57.94643171131611L256.47135199652774,49.166663736104965L257.68015118634264,54.43452715873718L258.89964771412036,61.458336263895035L260.0629832175926,35.11904552578926L261.29852575231484,49.166663736104965L262.5394169560185,59.70237739384174L263.72147280092594,66.7261864989996L264.9035286458333,68.48214536905289L266.07488715277776,54.43452715873718L267.24624565972226,56.19047284126282" style="fill: none;" fill="none"></path></g></g></g></g></g></g><g transform="translate(41, 177)" clip-path="url(#clip_1)"><clipPath id="clip_1"><rect width="288" height="23"></rect></clipPath><g><g><line x1="0" y1="0" x2="0" y2="5" style="visibility: inherit;" fill="rgb(0, 0, 0)" stroke="rgb(204, 204, 204)" stroke-width="1px"></line><line x1="19.255208333333332" y1="0" x2="19.255208333333332" y2="5" style="visibility: inherit;" fill="rgb(0, 0, 0)" stroke="rgb(204, 204, 204)" stroke-width="1px"></line><line x1="38.510416666666664" y1="0" x2="38.510416666666664" y2="5" style="visibility: inherit;" fill="rgb(0, 0, 0)" stroke="rgb(204, 204, 204)" stroke-width="1px"></line><line x1="57.765625" y1="0" x2="57.765625" y2="5" style="visibility: inherit;" fill="rgb(0, 0, 0)" stroke="rgb(204, 204, 204)" stroke-width="1px"></line><line x1="77.02083333333333" y1="0" x2="77.02083333333333" y2="5" style="visibility: inherit;" fill="rgb(0, 0, 0)" stroke="rgb(204, 204, 204)" stroke-width="1px"></line><line x1="96.27604166666667" y1="0" x2="96.27604166666667" y2="5" style="visibility: inherit;" fill="rgb(0, 0, 0)" stroke="rgb(204, 204, 204)" stroke-width="1px"></line><line x1="115.53125" y1="0" x2="115.53125" y2="5" style="visibility: inherit;" fill="rgb(0, 0, 0)" stroke="rgb(204, 204, 204)" stroke-width="1px"></line><line x1="134.78645833333334" y1="0" x2="134.78645833333334" y2="5" style="visibility: inherit;" fill="rgb(0, 0, 0)" stroke="rgb(204, 204, 204)" stroke-width="1px"></line><line x1="154.04166666666666" y1="0" x2="154.04166666666666" y2="5" style="visibility: inherit;" fill="rgb(0, 0, 0)" stroke="rgb(204, 204, 204)" stroke-width="1px"></line><line x1="173.29687500000003" y1="0" x2="173.29687500000003" y2="5" style="visibility: inherit;" fill="rgb(0, 0, 0)" stroke="rgb(204, 204, 204)" stroke-width="1px"></line><line x1="192.55208333333331" y1="0" x2="192.55208333333331" y2="5" style="visibility: inherit;" fill="rgb(0, 0, 0)" stroke="rgb(204, 204, 204)" stroke-width="1px"></line><line x1="211.80729166666666" y1="0" x2="211.80729166666666" y2="5" style="visibility: inherit;" fill="rgb(0, 0, 0)" stroke="rgb(204, 204, 204)" stroke-width="1px"></line><line x1="231.0625" y1="0" x2="231.0625" y2="5" style="visibility: inherit;" fill="rgb(0, 0, 0)" stroke="rgb(204, 204, 204)" stroke-width="1px"></line><line x1="250.31770833333337" y1="0" x2="250.31770833333337" y2="5" style="visibility: inherit;" fill="rgb(0, 0, 0)" stroke="rgb(204, 204, 204)" stroke-width="1px"></line><line x1="269.57291666666663" y1="0" x2="269.57291666666663" y2="5" style="visibility: inherit;" fill="rgb(0, 0, 0)" stroke="rgb(204, 204, 204)" stroke-width="1px"></line><line x1="288.828125" y1="0" x2="288.828125" y2="5" style="visibility: inherit;" fill="rgb(0, 0, 0)" stroke="rgb(204, 204, 204)" stroke-width="1px"></line></g><g transform="translate(0, 8)"><text x="0" y="0" dx="0em" dy="0.95em" style="text-anchor: middle; visibility: hidden; font-family: Roboto, sans-serif; font-size: 12px; font-weight: 200;" fill="rgb(33, 33, 33)" stroke="none" stroke-width="1px">-0.002</text><text x="19.255208333333332" y="0" dx="0em" dy="0.95em" style="text-anchor: middle; visibility: inherit; font-family: Roboto, sans-serif; font-size: 12px; font-weight: 200;" fill="rgb(33, 33, 33)" stroke="none" stroke-width="1px">0</text><text x="38.510416666666664" y="0" dx="0em" dy="0.95em" style="text-anchor: middle; visibility: hidden; font-family: Roboto, sans-serif; font-size: 12px; font-weight: 200;" fill="rgb(33, 33, 33)" stroke="none" stroke-width="1px">0.002</text><text x="57.765625" y="0" dx="0em" dy="0.95em" style="text-anchor: middle; visibility: inherit; font-family: Roboto, sans-serif; font-size: 12px; font-weight: 200;" fill="rgb(33, 33, 33)" stroke="none" stroke-width="1px">0.004</text><text x="77.02083333333333" y="0" dx="0em" dy="0.95em" style="text-anchor: middle; visibility: hidden; font-family: Roboto, sans-serif; font-size: 12px; font-weight: 200;" fill="rgb(33, 33, 33)" stroke="none" stroke-width="1px">0.006</text><text x="96.27604166666667" y="0" dx="0em" dy="0.95em" style="text-anchor: middle; visibility: inherit; font-family: Roboto, sans-serif; font-size: 12px; font-weight: 200;" fill="rgb(33, 33, 33)" stroke="none" stroke-width="1px">0.008</text><text x="115.53125" y="0" dx="0em" dy="0.95em" style="text-anchor: middle; visibility: hidden; font-family: Roboto, sans-serif; font-size: 12px; font-weight: 200;" fill="rgb(33, 33, 33)" stroke="none" stroke-width="1px">0.01</text><text x="134.78645833333334" y="0" dx="0em" dy="0.95em" style="text-anchor: middle; visibility: inherit; font-family: Roboto, sans-serif; font-size: 12px; font-weight: 200;" fill="rgb(33, 33, 33)" stroke="none" stroke-width="1px">0.012</text><text x="154.04166666666666" y="0" dx="0em" dy="0.95em" style="text-anchor: middle; visibility: hidden; font-family: Roboto, sans-serif; font-size: 12px; font-weight: 200;" fill="rgb(33, 33, 33)" stroke="none" stroke-width="1px">0.014</text><text x="173.29687500000003" y="0" dx="0em" dy="0.95em" style="text-anchor: middle; visibility: inherit; font-family: Roboto, sans-serif; font-size: 12px; font-weight: 200;" fill="rgb(33, 33, 33)" stroke="none" stroke-width="1px">0.016</text><text x="192.55208333333331" y="0" dx="0em" dy="0.95em" style="text-anchor: middle; visibility: hidden; font-family: Roboto, sans-serif; font-size: 12px; font-weight: 200;" fill="rgb(33, 33, 33)" stroke="none" stroke-width="1px">0.018</text><text x="211.80729166666666" y="0" dx="0em" dy="0.95em" style="text-anchor: middle; visibility: inherit; font-family: Roboto, sans-serif; font-size: 12px; font-weight: 200;" fill="rgb(33, 33, 33)" stroke="none" stroke-width="1px">0.02</text><text x="231.0625" y="0" dx="0em" dy="0.95em" style="text-anchor: middle; visibility: hidden; font-family: Roboto, sans-serif; font-size: 12px; font-weight: 200;" fill="rgb(33, 33, 33)" stroke="none" stroke-width="1px">0.022</text><text x="250.31770833333337" y="0" dx="0em" dy="0.95em" style="text-anchor: middle; visibility: inherit; font-family: Roboto, sans-serif; font-size: 12px; font-weight: 200;" fill="rgb(33, 33, 33)" stroke="none" stroke-width="1px">0.024</text><text x="269.57291666666663" y="0" dx="0em" dy="0.95em" style="text-anchor: middle; visibility: hidden; font-family: Roboto, sans-serif; font-size: 12px; font-weight: 200;" fill="rgb(33, 33, 33)" stroke="none" stroke-width="1px">0.026</text><text x="288.828125" y="0" dx="0em" dy="0.95em" style="text-anchor: middle; visibility: hidden; font-family: Roboto, sans-serif; font-size: 12px; font-weight: 200;" fill="rgb(33, 33, 33)" stroke="none" stroke-width="1px">0.028</text></g><line x1="0" y1="0" x2="288.828125" y2="0" fill="rgb(0, 0, 0)" stroke="rgb(204, 204, 204)" stroke-width="1px"></line></g></g></g></g></svg>