<svg viewBox="0 0 330.0000305175781 200.00001525878906" xmlns="http://www.w3.org/2000/svg"><g><g><g><g><g><line x1="41.171875" y1="177" x2="36.171875" y2="177" style="visibility: inherit;" fill="rgb(0, 0, 0)" stroke="rgb(204, 204, 204)" stroke-width="1px"></line><line x1="41.171875" y1="157.33333333333331" x2="36.171875" y2="157.33333333333331" style="visibility: inherit;" fill="rgb(0, 0, 0)" stroke="rgb(204, 204, 204)" stroke-width="1px"></line><line x1="41.171875" y1="137.66666666666666" x2="36.171875" y2="137.66666666666666" style="visibility: inherit;" fill="rgb(0, 0, 0)" stroke="rgb(204, 204, 204)" stroke-width="1px"></line><line x1="41.171875" y1="118" x2="36.171875" y2="118" style="visibility: inherit;" fill="rgb(0, 0, 0)" stroke="rgb(204, 204, 204)" stroke-width="1px"></line><line x1="41.171875" y1="98.33333333333334" x2="36.171875" y2="98.33333333333334" style="visibility: inherit;" fill="rgb(0, 0, 0)" stroke="rgb(204, 204, 204)" stroke-width="1px"></line><line x1="41.171875" y1="78.66666666666666" x2="36.171875" y2="78.66666666666666" style="visibility: inherit;" fill="rgb(0, 0, 0)" stroke="rgb(204, 204, 204)" stroke-width="1px"></line><line x1="41.171875" y1="59.00000000000001" x2="36.171875" y2="59.00000000000001" style="visibility: inherit;" fill="rgb(0, 0, 0)" stroke="rgb(204, 204, 204)" stroke-width="1px"></line><line x1="41.171875" y1="39.33333333333333" x2="36.171875" y2="39.33333333333333" style="visibility: inherit;" fill="rgb(0, 0, 0)" stroke="rgb(204, 204, 204)" stroke-width="1px"></line><line x1="41.171875" y1="19.666666666666657" x2="36.171875" y2="19.666666666666657" style="visibility: inherit;" fill="rgb(0, 0, 0)" stroke="rgb(204, 204, 204)" stroke-width="1px"></line><line x1="41.171875" y1="0" x2="36.171875" y2="0" style="visibility: inherit;" fill="rgb(0, 0, 0)" stroke="rgb(204, 204, 204)" stroke-width="1px"></line></g><g transform="translate(31.171875, 0)"><text x="0" y="177" dx="0em" dy="0.3em" style="text-anchor: end; visibility: hidden; font-family: Roboto, sans-serif; font-size: 12px; font-weight: 200;" fill="rgb(33, 33, 33)" stroke="none" stroke-width="1px">0.2</text><text x="0" y="157.33333333333331" dx="0em" dy="0.3em" style="text-anchor: end; visibility: inherit; font-family: Roboto, sans-serif; font-size: 12px; font-weight: 200;" fill="rgb(33, 33, 33)" stroke="none" stroke-width="1px">0.4</text><text x="0" y="137.66666666666666" dx="0em" dy="0.3em" style="text-anchor: end; visibility: hidden; font-family: Roboto, sans-serif; font-size: 12px; font-weight: 200;" fill="rgb(33, 33, 33)" stroke="none" stroke-width="1px">0.6</text><text x="0" y="118" dx="0em" dy="0.3em" style="text-anchor: end; visibility: inherit; font-family: Roboto, sans-serif; font-size: 12px; font-weight: 200;" fill="rgb(33, 33, 33)" stroke="none" stroke-width="1px">0.8</text><text x="0" y="98.33333333333334" dx="0em" dy="0.3em" style="text-anchor: end; visibility: hidden; font-family: Roboto, sans-serif; font-size: 12px; font-weight: 200;" fill="rgb(33, 33, 33)" stroke="none" stroke-width="1px">1</text><text x="0" y="78.66666666666666" dx="0em" dy="0.3em" style="text-anchor: end; visibility: inherit; font-family: Roboto, sans-serif; font-size: 12px; font-weight: 200;" fill="rgb(33, 33, 33)" stroke="none" stroke-width="1px">1.2</text><text x="0" y="59.00000000000001" dx="0em" dy="0.3em" style="text-anchor: end; visibility: hidden; font-family: Roboto, sans-serif; font-size: 12px; font-weight: 200;" fill="rgb(33, 33, 33)" stroke="none" stroke-width="1px">1.4</text><text x="0" y="39.33333333333333" dx="0em" dy="0.3em" style="text-anchor: end; visibility: inherit; font-family: Roboto, sans-serif; font-size: 12px; font-weight: 200;" fill="rgb(33, 33, 33)" stroke="none" stroke-width="1px">1.6</text><text x="0" y="19.666666666666657" dx="0em" dy="0.3em" style="text-anchor: end; visibility: hidden; font-family: Roboto, sans-serif; font-size: 12px; font-weight: 200;" fill="rgb(33, 33, 33)" stroke="none" stroke-width="1px">1.8</text><text x="0" y="0" dx="0em" dy="0.3em" style="text-anchor: end; visibility: hidden; font-family: Roboto, sans-serif; font-size: 12px; font-weight: 200;" fill="rgb(33, 33, 33)" stroke="none" stroke-width="1px">2</text></g><line x1="41.171875" y1="0" x2="41.171875" y2="177" fill="rgb(0, 0, 0)" stroke="rgb(204, 204, 204)" stroke-width="1px"></line></g></g><g transform="translate(41, 0)" clip-path="url(#clip_0)"><clipPath id="clip_0"><rect width="288" height="177"></rect></clipPath><g><g><g><line x1="0" y1="0" x2="0" y2="177" fill="rgb(0, 0, 0)" stroke="rgb(66, 66, 66)" stroke-width="1px" opacity="0.25"></line><line x1="19.255208333333332" y1="0" x2="19.255208333333332" y2="177" fill="rgb(0, 0, 0)" stroke="rgb(66, 66, 66)" stroke-width="1px" opacity="0.25"></line><line x1="38.510416666666664" y1="0" x2="38.510416666666664" y2="177" fill="rgb(0, 0, 0)" stroke="rgb(66, 66, 66)" stroke-width="1px" opacity="0.25"></line><line x1="57.765625" y1="0" x2="57.765625" y2="177" fill="rgb(0, 0, 0)" stroke="rgb(66, 66, 66)" stroke-width="1px" opacity="0.25"></line><line x1="77.02083333333333" y1="0" x2="77.02083333333333" y2="177" fill="rgb(0, 0, 0)" stroke="rgb(66, 66, 66)" stroke-width="1px" opacity="0.25"></line><line x1="96.27604166666667" y1="0" x2="96.27604166666667" y2="177" fill="rgb(0, 0, 0)" stroke="rgb(66, 66, 66)" stroke-width="1px" opacity="0.25"></line><line x1="115.53125" y1="0" x2="115.53125" y2="177" fill="rgb(0, 0, 0)" stroke="rgb(66, 66, 66)" stroke-width="1px" opacity="0.25"></line><line x1="134.78645833333334" y1="0" x2="134.78645833333334" y2="177" fill="rgb(0, 0, 0)" stroke="rgb(66, 66, 66)" stroke-width="1px" opacity="0.25"></line><line x1="154.04166666666666" y1="0" x2="154.04166666666666" y2="177" fill="rgb(0, 0, 0)" stroke="rgb(66, 66, 66)" stroke-width="1px" opacity="0.25"></line><line x1="173.29687500000003" y1="0" x2="173.29687500000003" y2="177" fill="rgb(0, 0, 0)" stroke="rgb(66, 66, 66)" stroke-width="1px" opacity="0.25"></line><line x1="192.55208333333331" y1="0" x2="192.55208333333331" y2="177" fill="rgb(0, 0, 0)" stroke="rgb(66, 66, 66)" stroke-width="1px" opacity="0.25"></line><line x1="211.80729166666666" y1="0" x2="211.80729166666666" y2="177" fill="rgb(0, 0, 0)" stroke="rgb(66, 66, 66)" stroke-width="1px" opacity="0.25"></line><line x1="231.0625" y1="0" x2="231.0625" y2="177" fill="rgb(0, 0, 0)" stroke="rgb(66, 66, 66)" stroke-width="1px" opacity="0.25"></line><line x1="250.31770833333337" y1="0" x2="250.31770833333337" y2="177" fill="rgb(0, 0, 0)" stroke="rgb(66, 66, 66)" stroke-width="1px" opacity="0.25"></line><line x1="269.57291666666663" y1="0" x2="269.57291666666663" y2="177" fill="rgb(0, 0, 0)" stroke="rgb(66, 66, 66)" stroke-width="1px" opacity="0.25"></line><line x1="288.828125" y1="0" x2="288.828125" y2="177" fill="rgb(0, 0, 0)" stroke="rgb(66, 66, 66)" stroke-width="1px" opacity="0.25"></line></g><g><line x1="0" y1="177" x2="288.828125" y2="177" fill="rgb(0, 0, 0)" stroke="rgb(66, 66, 66)" stroke-width="1px" opacity="0.25"></line><line x1="0" y1="157.33333333333331" x2="288.828125" y2="157.33333333333331" fill="rgb(0, 0, 0)" stroke="rgb(66, 66, 66)" stroke-width="1px" opacity="0.25"></line><line x1="0" y1="137.66666666666666" x2="288.828125" y2="137.66666666666666" fill="rgb(0, 0, 0)" stroke="rgb(66, 66, 66)" stroke-width="1px" opacity="0.25"></line><line x1="0" y1="118" x2="288.828125" y2="118" fill="rgb(0, 0, 0)" stroke="rgb(66, 66, 66)" stroke-width="1px" opacity="0.25"></line><line x1="0" y1="98.33333333333334" x2="288.828125" y2="98.33333333333334" fill="rgb(0, 0, 0)" stroke="rgb(66, 66, 66)" stroke-width="1px" opacity="0.25"></line><line x1="0" y1="78.66666666666666" x2="288.828125" y2="78.66666666666666" fill="rgb(0, 0, 0)" stroke="rgb(66, 66, 66)" stroke-width="1px" opacity="0.25"></line><line x1="0" y1="59.00000000000001" x2="288.828125" y2="59.00000000000001" fill="rgb(0, 0, 0)" stroke="rgb(66, 66, 66)" stroke-width="1px" opacity="0.25"></line><line x1="0" y1="39.33333333333333" x2="288.828125" y2="39.33333333333333" fill="rgb(0, 0, 0)" stroke="rgb(66, 66, 66)" stroke-width="1px" opacity="0.25"></line><line x1="0" y1="19.666666666666657" x2="288.828125" y2="19.666666666666657" fill="rgb(0, 0, 0)" stroke="rgb(66, 66, 66)" stroke-width="1px" opacity="0.25"></line><line x1="0" y1="0" x2="288.828125" y2="0" fill="rgb(0, 0, 0)" stroke="rgb(66, 66, 66)" stroke-width="1px" opacity="0.25"></line></g></g></g><g><g><line x1="0" y1="196.66666666666669" x2="288.828125" y2="196.66666666666669" fill="rgb(0, 0, 0)" stroke="rgb(153, 153, 153)" stroke-width="1.5px"></line></g></g><g><g><line x1="19.255208333333332" y1="0" x2="19.255208333333332" y2="177" fill="rgb(0, 0, 0)" stroke="rgb(153, 153, 153)" stroke-width="1.5px"></line></g></g><g><g><g><g><g><path stroke="rgb(0, 119, 187)" stroke-width="2px" d="M19.255208333333332,20.8900636434555L20.755509982638888,20.155935921334645L22.285229311342594,20.280803010405126L23.796228298611116,20.307013830741024L25.317924623842597,20.826390653880264L26.839620949074078,20.968976672028695L28.203531539351854,21.59760852713842L29.53000144675926,21.65506761903508L30.907283709490745,21.6728278350821L32.2631712962963,22.04603882209586L33.643127893518525,22.602067864720023L34.95087745949074,22.92949951728172L36.25060402199074,23.4881406177515L38.05043113425926,22.9054757709059L39.406318721064814,23.151435463975936L40.65255859375,23.383168262494433L41.92821614583333,23.358654856965934L43.17713035300926,23.232374761796585L44.45011357060185,23.41077657352957L45.704376446759255,24.02604394494086L46.942593315972225,24.7081809040014L48.15941550925926,25.323807306054068L49.389609375000006,25.386727342981725L50.603757233796294,25.445308003242587L51.83929976851852,25.48771484380596L53.09356264467593,25.832478433546957L54.294338831018514,26.513223135352238L55.52185836226852,27.25144810260162L56.76542390046296,26.68172147375943L57.96887442129629,26.319970714723212L59.20709129050926,26.77693829365537L60.44263382523149,27.999966688103825L61.630038339120375,29.3636662697148L62.89499855324074,30.294304057876218L64.13856409143519,31.309950368259468L65.3339916087963,33.40558661311616L66.57755714699074,35.294693732970664L67.80507667824075,35.95552182802887L69.02724754050926,36.022174110895854L70.22000072337963,37.351084473406765L71.41275390625,39.66767499555126L72.62957609953705,40.50313349209603L73.83302662037038,41.14754755116692L75.0364771412037,44.21020926799179L76.25329933449075,51.740386543170885L77.47012152777779,58.88852137504445L78.71903573495372,55.6835647149814L79.91713758680557,52.07004936827608L81.12326244212962,50.361867989640324L82.31066695601852,55.94160766066819L83.47132812500001,59.958158169895576L84.67210431134258,61.96786880182485L85.84881148726852,56.23027778325556L87.03889033564815,52.312313259624425L88.20222583912039,49.27677035800079L89.3521896701389,49.85813646329788L90.49413049768519,47.69292871380887L91.63874565972222,43.33747864290632L92.7994068287037,41.804461935200884L93.9600679976852,42.46872607716883L95.16351851851852,42.86788493277722L96.36964337384259,43.87436970588221L97.72820529513889,46.29925670121408L98.9156098090278,49.96045435721745L100.11371166087964,53.907731778626676L101.31448784722222,57.95168348175942L102.55805338541667,59.10126600730899L103.80429325810186,60.332841973956L105.02913845486111,61.83264353085377L106.43583839699076,63.03815906251814L107.69010127314816,63.891419724534536L108.90424913194444,66.63004439956971L110.12107132523148,70.1492517524325L111.35393952546296,74.32362120747625L112.56006438078704,77.35413591461591L113.76351490162037,80.95770540355292L114.9669654224537,86.3047740727533L116.11158058449075,90.53610258243819L117.27491608796298,94.97565303129534L118.44092592592592,98.35448365279784L119.7058861400463,97.71656906656436L121.12060908564816,94.22803001541196L122.35347728587965,89.27985285911741L123.58901982060185,88.05373543469477L124.86200303819446,86.6151356113527L126.1189402488426,85.92394296603298L127.3464597800926,87.38450824744328L128.56328197337965,89.3569643384845L129.7881271701389,91.8560775938782L130.97820601851853,95.37997276971582L132.20305121527778,98.29104780530122L133.44929108796296,101.51805501814967L134.65541594328704,104.85590628131214L135.86956380208335,107.72973096754262L137.09440899884262,110.20172414545665L138.37808955439817,112.74040980555773L139.659095775463,115.26105554955002L140.9160329861111,117.94230797874177L142.12483217592592,120.42999395985875L143.34700303819446,123.12908837510521L144.56917390046297,125.4285922432348L145.85285445601852,127.21826398425421L147.10176866319443,128.74442738913018L148.27580150462964,129.68663959383227L149.55680772569443,130.5123833491255L150.72549189814814,131.43062641734105L151.96905743634258,132.72900524737253L153.1430902777778,133.69207521969437L154.34386646412037,133.6856331326314L155.5794089988426,133.1794168948883L156.78285951967592,133.21032400361213L157.94619502314814,134.1043204028948L159.13894820601854,135.0436877999693L160.37983940972225,135.82032497060396L161.6127076099537,137.09522543525452L162.86429615162038,138.7310343766093L164.06774667245372,139.79334039441824L165.3407298900463,140.55529015605163L166.56557508680558,141.24191888505433L167.9589033564815,141.65054499457452L169.2720015914352,142.1187982339793L170.45405743634257,142.4123276038039L171.68425130208334,143.00373656859873L172.8716558159722,143.6345053012724L174.05638599537036,144.16514571115573L175.2999515335648,144.6489039388282L176.5729347511574,145.06028775977518L177.74161892361113,145.48280941260128L178.91297743055557,145.76726982642043L180.10840494791668,145.81662666808037L181.30115813078706,146.05710579989426L182.5367006655093,146.40047433812956L183.74015118634264,146.75061608237257L184.93825303819446,147.0259300592212L186.16844690393518,147.3665972287544L187.3692230902778,147.964136004701L188.5780222800926,148.43731501147195L189.83228515625,148.76847512555238L191.09457103587962,148.9639488389329L192.2686038773148,149.08756230105826L193.49344907407408,149.23485324093016L194.70492259837962,149.15799199075548L195.92976779513887,149.27220741191653L197.17868200231484,149.5283348131902L198.40085286458336,149.72817523888824L199.6979050925926,150.00352679098836L200.91740162037036,150.18886938049621L202.0994574652778,150.3499197906468L203.3109309895833,150.4031297885726L204.49566116898148,150.31896195749673L205.69376302083336,150.2511657223519L206.87314453125,150.24546283773506L208.05252604166665,150.22417740386527L209.2131872106482,150.1042641537352L210.35780237268517,150.1801086860616L211.51578920717597,150.3971538920947L212.70586805555556,150.65147581259313L213.9253645833333,150.9310056275811L215.15020978009258,151.1345584094846L216.35098596643522,151.20499519102415L217.57048249421297,151.25853500419203L218.77393301504628,151.32405559229215L220.02284722222225,151.35257362228091L221.30652777777783,151.36589160564034L222.56079065393524,151.4688045631696L223.7856358506945,151.64720915481132L225.01582971643518,151.77329285362848L226.22730324074075,151.82860698528148L227.47086877893517,151.90282249066192L228.67966796875004,151.98984796588982L229.8750954861111,152.0799785902848L231.0625,152.11864115387684L232.26595052083334,152.17812068765278L233.43463469328705,152.2860370857117L234.60599320023147,152.35981645633322L235.7613057002315,152.31425917362182L236.92196686921295,152.30647979558083L238.12541739004627,152.4545813969707L239.33956524884258,152.53657127138408L240.56708478009259,152.67572885517131L241.79727864583333,152.83329653214656L243.01677517361114,152.92756081342006L244.25766637731482,152.88385965240423L245.4825115740741,152.8211684838619L246.8170044849537,152.80957354053913L248.0498726851852,152.800685120852L249.25064887152774,152.79162985000985L250.44072771990744,152.73184299517638L251.66289858217596,152.62465310156043L252.83960575810184,152.55387320605735L254.05642795138888,152.50792981881486L255.2224377893519,152.45519716368437L256.46600332754633,152.48010006703547L257.6774768518519,152.47315472302046L258.89429904513895,152.51490304167635L260.05763454861113,152.5301472805989L261.2931770833333,152.55770758198543L262.53674262152776,152.5424112800812L263.71612413194447,152.52828679650653L264.8981799768519,152.53115674733706L266.0695384837963,152.51196358704723L267.24089699074074,152.48431474082295" style="fill: none;" fill="none"></path></g><g><path stroke="rgb(255, 112, 67)" stroke-width="2px" d="M19.255208333333332,-17.091317176818862L20.758184317129633,1.9356604463601725L22.287903645833335,13.817983005037807L23.798902633101854,16.47361146724302L25.320598958333335,22.21858939710992L26.842295283564816,34.03614820842427L28.208880208333337,37.07394591869792L29.53535011574074,39.95004030527283L30.91263237847222,40.99605904416627L32.26851996527778,47.90126434722418L33.6484765625,52.05966675801972L34.956226128472224,59.229790015182964L36.25595269097223,58.25366189781798L38.05043113425926,68.44383462374796L39.4116673900463,65.59612048908856L40.65790726273148,74.79171174792083L41.93356481481481,67.86731895495157L43.18247902199074,71.71513481045213L44.45278790509259,76.20851509625413L45.707050781250004,78.81144911870592L46.94794198495371,80.9686253422836L48.164764178240745,87.73067910223794L49.39495804398149,87.0538360614818L50.606431568287036,89.00785577638644L51.841974103009264,85.8272530003791L53.09623697916667,85.89729389688891L54.2996875,82.5032493967416L55.52720703125,77.88580938147737L56.770772569444446,89.37591211900624L57.974223090277775,93.68358557926905L59.212439959490744,90.9616544736469L60.445308159722224,88.14716970730053L61.63538700810186,87.01035276303716L62.90034722222223,103.60846111376588L64.14391276041667,99.23201417388024L65.33934027777778,100.02959151527659L66.58290581597223,103.24245479795688L67.81042534722224,100.42587340995156L69.03259620949075,103.81852164827433L70.22534939236111,102.33094174486997L71.41542824074074,111.0394485593525L72.63492476851853,101.14823525910934L73.83837528935186,107.14328681351284L75.03915147569445,117.6650633765704L76.25864800347223,112.70932685216093L77.47279586226851,108.18731067035799L78.72171006944444,109.57327093696526L79.92248625578705,116.4526511090115L81.12593677662038,113.39853968319383L82.316015625,120.1970498137397L83.4766767939815,112.76418578582991L84.67745298032406,110.86796562858108L85.85416015625,107.92643564915221L87.04423900462963,115.5794442437009L88.20490017361112,114.33594079801433L89.35753833912037,122.09362015916727L90.49947916666667,117.07058219718112L91.6440943287037,122.69453731084087L92.80475549768518,120.48265902307664L93.96541666666667,121.69570152446819L95.1688671875,116.92075382280416L96.37499204282408,125.48249401092922L97.73355396412038,122.36991403970318L98.92095847800925,125.99772456663543L100.11638599537036,122.25451656866852L101.3198365162037,114.6665684988139L102.56072771990742,125.62404847828422L103.8069675925926,121.79972669784424L105.01576678240743,120.34500464219083L106.39572337962963,114.73265151336598L107.69544994212964,123.9832852358684L108.90959780092592,126.85732982028156L110.12374565972222,121.0540643404999L111.35928819444445,126.88058417320983L112.56541304976851,132.4809426263331L113.76618923611112,123.93511887974351L114.97231409143518,126.32297325118569L116.11692925347222,129.90790384114652L117.28026475694445,131.6471983957884L118.4462745949074,119.52317689635179L119.61228443287037,123.29739394948888L121.12595775462964,127.98761680113147L122.35882595486112,122.24114061542949L123.59436848958333,118.8669050896905L124.86735170717593,122.97503221239835L126.12161458333334,131.06595686897464L127.35180844907408,132.21262489955936L128.56863064236111,134.86887087652943L129.79347583912036,130.39918974067282L130.98088035300927,125.61069380934092L132.20839988425925,124.70252219255387L133.45463975694443,132.09752457376612L134.6607646122685,124.8689989031671L135.87491247106482,132.429540468524L137.0997576678241,130.5165797319288L138.38343822337964,122.59581288035335L139.66444444444446,122.95511758890206L140.9213816550926,129.91058256526944L142.13018084490741,127.73806250202091L143.35235170717593,124.63218785771996L144.57452256944444,131.40889944528496L145.85552879050928,130.2705137995402L147.10711733217593,125.85419020547161L148.2811501736111,132.86176877613616L149.56215639467592,126.24539039159178L150.73084056712963,123.19798856001718L151.97173177083334,123.250179801447L153.14843894675928,126.76654232639514L154.34921513310186,125.77129655493789L155.5847576678241,120.72621955132357L156.78820818865742,122.40404881361982L157.95154369212963,128.44361196965104L159.144296875,128.23114413281286L160.38251374421299,126.0218542032985L161.61805627893517,128.18922160171294L162.86964482060185,120.53489049081362L164.07309534143516,125.85551651558539L165.3460785590278,126.68738499227929L166.57092375578702,131.89630780954028L167.95622902199077,134.7358012874831L169.27735026041668,124.90878844068666L170.45940610532406,130.03386907928814L171.6895999710648,131.49872890476803L172.87700448495372,135.18887131581857L174.0617346643519,131.20057552353234L175.30530020254633,124.55367949744605L176.5782834201389,126.91172635052432L177.7469675925926,129.4695874518929L178.918326099537,127.53731478496611L180.11107928240736,128.20059416006362L181.30383246527782,132.42852405217735L182.54204933449074,134.00493023187394L183.74282552083332,130.5402225216559L184.93825303819446,129.4751899250493L186.17379557291667,132.33529025813073L187.37457175925925,126.60503312598689L188.5833709490741,128.48846650581464L189.8376338252315,130.5302430770721L191.09991970486115,137.0133061686378L192.27127821180557,133.70784922350305L193.4987977430556,127.48838349356208L194.71027126736112,123.76837353176317L195.9351164641204,123.83729116611438L197.18403067129628,115.1789398553527L198.4062015335648,126.55405296200375L199.70325376157408,128.3763877607996L200.92275028935188,130.38609387451487L202.1048061342593,130.96267688682542L203.31627965856484,124.52841935302172L204.49833550347222,128.20274715119183L205.6991116898148,131.80947430938213L206.87849320023153,127.62138978606389L208.05787471064818,126.0201613680646L209.21853587962963,131.15203096251415L210.36315104166667,128.7767277241606L211.5211378761574,128.04464480181633L212.71121672453708,124.18451899526735L213.93071325231483,127.8350984078563L215.15288411458334,127.2049663023491L216.35633463541666,128.55842322410695L217.5758311631944,131.4993264969161L218.77928168402775,129.393354314546L220.0281958912037,133.36851924109467L221.31187644675927,129.02717271239266L222.56613932291665,122.91000265380302L223.79098451967593,133.95727507097632L225.02117838541665,134.58122257710474L226.23265190972228,132.08010665650718L227.47354311342593,130.0259717660244L228.68501663773148,126.65044896788449L229.87776982060186,128.5013321541889L231.06784866898147,123.42292263603431L232.2686248553241,132.86252049019188L233.43998336226855,133.36630310979714L234.61134186921296,122.64086512188824L235.766654369213,126.3583939395072L236.92464120370371,127.28687046290446L238.1307660590278,133.07355757124782L239.3449139178241,125.12961803577717L240.57243344907405,132.9512286567993L241.80262731481483,124.06005401711592L243.02212384259258,131.68129819474206L244.26301504629626,129.90810535145434L245.48786024305554,130.41016177251876L246.82235315393515,134.8837834935502L248.0552213541667,127.17060654119062L249.25599754050927,128.37429846657884L250.4460763888889,130.18678281919208L251.66557291666672,129.85472924724002L252.84495442708337,128.24044297226794L254.0617766203704,132.98669701136674L255.22778645833336,133.6018727325685L256.47135199652774,129.42509596709914L257.6828255208333,131.8918803886828L258.89964771412036,127.51170134406676L260.0629832175926,140.83063674331262L261.29852575231484,123.37156426834453L262.5420912905093,130.39520063481353L263.72147280092594,125.84988006809712L264.90620298032405,125.78891103142651L266.07488715277776,125.97959574704848L267.24624565972226,130.69002709821666" style="fill: none;" fill="none"></path></g></g></g></g><g opacity="0.2"><g><g><g><path stroke="rgb(0, 119, 187)" stroke-width="2px" d="M19.255208333333332,20.8900636434555L20.755509982638888,20.010578632354743L22.285229311342594,20.310421983400975L23.796228298611116,20.313434600830078L25.317924623842597,20.954418778419488L26.839620949074078,21.004167993863422L28.203531539351854,21.752797563870747L29.53000144675926,21.669253110885627L30.907283709490745,21.677212516466778L32.2631712962963,22.13817814985912L33.643127893518525,22.73934185504914L34.95087745949074,23.010336756706238L36.25060402199074,23.626059492429096L38.05043113425926,22.761625846227016L39.406318721064814,23.212158679962158L40.65255859375,23.4403791030248L41.92821614583333,23.352602918942768L43.17713035300926,23.20119837919872L44.45011357060185,23.454820911089588L45.704376446759255,24.17794287204743L46.942593315972225,24.87658878167471L48.15941550925926,25.47579487164815L49.389609375000006,25.4022612174352L50.603757233796294,25.459770560264595L51.83929976851852,25.498184363047276L53.09356264467593,25.91759463151295L54.294338831018514,26.681287288665764L55.52185836226852,27.433703144391384L56.76542390046296,26.541065772374477L57.96887442129629,26.230660676956184L59.20709129050926,26.88975572586059L60.44263382523149,28.30191135406494L61.630038339120375,29.700340231259663L62.89499855324074,30.524062514305115L64.13856409143519,31.56069596608479L65.3339916087963,33.92296314239502L66.57755714699074,35.76108177502949L67.80507667824075,36.118668913841255L69.02724754050926,36.038629412651055L70.22000072337963,37.679169575373336L71.41275390625,40.23960133393605L72.62957609953705,40.70939381917317L73.83302662037038,41.30664229393006L75.0364771412037,44.96632774670918L76.25329933449075,53.599457740783684L77.47012152777779,60.653272867202766L78.71903573495372,54.89231606324513L79.91713758680557,51.177934606870004L81.12326244212962,49.94014739990235L82.31066695601852,57.31914937496186L83.47132812500001,60.94977537790935L84.67210431134258,62.46403177579243L85.84881148726852,54.813765287399285L87.03889033564815,51.34503523508708L88.20222583912039,48.527347048123666L89.3521896701389,50.00166575113932L90.49413049768519,47.158376177151986L91.63874565972222,42.262192964553826L92.7994068287037,41.42598648866018L93.9600679976852,42.63272146383922L95.16351851851852,42.96643038590748L96.36964337384259,44.122853477795914L97.72820529513889,46.89791957537332L98.9156098090278,50.864341060320534L100.11371166087964,54.88224665323894L101.31448784722222,58.950065573056534L102.55805338541667,59.385078152020775L103.80429325810186,60.63689688841501L105.02913845486111,62.202918728192635L106.43583839699076,63.33578010400135L107.69010127314816,64.10207509994507L108.90424913194444,67.30616370836894L110.12107132523148,71.01808349291484L111.35393952546296,75.3542011976242L112.56006438078704,78.10231784979503L113.76351490162037,81.8473647038142L114.9669654224537,87.62487332026164L116.11158058449075,91.5807447830836L117.27491608796298,96.07170164585112L118.44092592592592,99.18865879376729L119.7058861400463,97.55907893180847L121.12060908564816,93.36676975091298L122.35347728587965,88.05823306242624L123.58901982060185,87.75102814038596L124.86200303819446,86.25997006893158L126.1189402488426,85.75329939524333L127.3464597800926,87.7450966835022L128.56328197337965,89.84392980734506L129.7881271701389,92.47306565443675L130.97820601851853,96.24996185302734L132.20305121527778,99.00974214076996L133.44929108796296,102.31474757194519L134.65541594328704,105.67996432383855L135.86956380208335,108.4392288327217L137.09440899884262,110.81201672554016L138.37808955439817,113.36716761191687L139.659095775463,115.8833596110344L140.9160329861111,118.60426306724548L142.12483217592592,121.0441608230273L143.34700303819446,123.79544834295909L144.56917390046297,125.99630018075307L145.85285445601852,127.66010314226149L147.10176866319443,129.12121087312698L148.27580150462964,129.91925557454428L149.55680772569443,130.71624527374902L150.72549189814814,131.65732483069104L151.96905743634258,133.04955263932547L153.1430902777778,133.92984062433243L154.34386646412037,133.68404269218445L155.5794089988426,133.05444081624347L156.78285951967592,133.21795443693796L157.94619502314814,134.32503273089725L159.13894820601854,135.27560144662857L160.37983940972225,136.01206332445145L161.6127076099537,137.4099764227867L162.86429615162038,139.13488745689392L164.06774667245372,140.0556054711342L165.3407298900463,140.74340244134265L166.56557508680558,141.41143570343652L167.9589033564815,141.75142774979275L169.2720015914352,142.23440190156302L170.45405743634257,142.48479495445886L171.68425130208334,143.1497452656428L172.8716558159722,143.79023124774298L174.05638599537036,144.29615169763565L175.2999515335648,144.76833552122116L176.5729347511574,145.16185134649277L177.74161892361113,145.58712273836136L178.91297743055557,145.83749820788702L180.10840494791668,145.8288120230039L181.30115813078706,146.11647595961887L182.5367006655093,146.4852461218834L183.74015118634264,146.83706005414328L184.93825303819446,147.09390034278235L186.16844690393518,147.4507020910581L187.3692230902778,148.11165804664293L188.5780222800926,148.5541347662608L189.83228515625,148.85023285945257L191.09457103587962,149.01220793525377L192.2686038773148,149.11808033784231L193.49344907407408,149.27121683955193L194.70492259837962,149.1390162706375L195.92976779513887,149.30040523409843L197.17868200231484,149.59156826138496L198.40085286458336,149.7775124013424L199.6979050925926,150.07150635123253L200.91740162037036,150.234627276659L202.0994574652778,150.3896803657214L203.3109309895833,150.41626642147702L204.49566116898148,150.2981823682785L205.69376302083336,150.2344279984633L206.87314453125,150.2440548936526L208.05252604166665,150.21892239650091L209.2131872106482,150.07465963562328L210.35780237268517,150.1988333960374L211.51578920717597,150.45073861877125L212.70586805555556,150.71426351865134L213.9253645833333,151.00001672903696L215.15020978009258,151.1848120888074L216.35098596643522,151.2223848203818L217.57048249421297,151.27175306280455L218.77393301504628,151.3402314980825L220.02284722222225,151.3596142331759L221.30652777777783,151.36917958656946L222.56079065393524,151.49421200156212L223.7856358506945,151.69125417868295L225.01582971643518,151.8044207493464L226.22730324074075,151.8422630925973L227.47086877893517,151.92114502191544L228.67966796875004,152.01133305827776L229.8750954861111,152.10223029057184L231.0625,152.12818627556166L232.26595052083334,152.19280516107878L233.43463469328705,152.31267978747687L234.60599320023147,152.37803131341934L235.7613057002315,152.30301186442375L236.92196686921295,152.30455920100212L238.12541739004627,152.49114513397217L239.33956524884258,152.55681316057843L240.56708478009259,152.7100844681263L241.79727864583333,152.87219728032747L243.01677517361114,152.95083304246265L244.25766637731482,152.87307058771452L245.4825115740741,152.8056911130746L246.8170044849537,152.80671094854674L248.0498726851852,152.79849072297412L249.25064887152774,152.78939425945282L250.44072771990744,152.71708264946938L251.66289858217596,152.5981897612413L252.83960575810184,152.53639886776608L254.05642795138888,152.49658718705177L255.2224377893519,152.44217837850252L256.46600332754633,152.48624816536903L257.6774768518519,152.47144003709155L258.89429904513895,152.5252099831899L260.05763454861113,152.53391082088152L261.2931770833333,152.56451174616814L262.53674262152776,152.53863488634428L263.71612413194447,152.5247997045517L264.8981799768519,152.5318652888139L266.0695384837963,152.50722512602806L267.24089699074074,152.4774887164434" style="fill: none;" fill="none"></path></g><g><path stroke="rgb(255, 112, 67)" stroke-width="2px" d="M19.255208333333332,-17.091317176818862L20.758184317129633,5.7030020157496155L22.287903645833335,16.63651744524638L23.798902633101854,17.12415119012196L25.320598958333335,23.63474567731222L26.842295283564816,36.95281227429707L28.208880208333337,37.82388071219126L29.53535011574074,40.66009004910786L30.91263237847222,41.25430246194203L32.26851996527778,49.606039921442665L33.6484765625,53.08630466461181L34.956226128472224,60.999970038731895L36.25595269097223,58.012672662734985L38.05043113425926,70.95961292584738L39.4116673900463,64.89306886990865L40.65790726273148,77.06194500128427L41.93356481481481,66.15780552228291L43.18247902199074,72.66509433587392L44.45278790509259,77.31785337130228L45.707050781250004,79.45406874020895L46.94794198495371,81.50119503339133L48.164764178240745,89.40011382102966L49.39495804398149,86.88673516114552L50.606431568287036,89.49026962121327L51.841974103009264,85.04201690355937L53.09623697916667,85.91458578904471L54.2996875,81.6653182109197L55.52720703125,76.74584289391835L56.770772569444446,92.21262077490488L57.974223090277775,94.7470760345459L59.212439959490744,90.28965651988982L60.445308159722224,87.45232184727986L61.63538700810186,86.72969222068787L62.90034722222223,107.70624846220016L64.14391276041667,98.15154472986856L65.33934027777778,100.22649963696797L66.58290581597223,104.0356554587682L67.81042534722224,99.73050793011983L69.03259620949075,104.65610812107721L70.22534939236111,101.96368386348088L71.41542824074074,113.1894290447235L72.63492476851853,98.7062648932139L73.83837528935186,108.62336188554764L75.03915147569445,120.26270896196365L76.25864800347223,111.4858407775561L77.47279586226851,107.07090268532434L78.72171006944444,109.91544067859648L79.92248625578705,118.15105170011519L81.12593677662038,112.64453212420145L82.316015625,121.87548498312631L83.4766767939815,110.92913955450057L84.67745298032406,110.39982149998347L85.85416015625,107.20022251208623L87.04423900462963,117.46884038050969L88.20490017361112,114.02894119421639L89.35753833912037,124.00885770718256L90.49947916666667,115.8304805556933L91.6440943287037,124.08299505710602L92.80475549768518,119.93658433357872L93.96541666666667,121.99518084526062L95.1688671875,115.74190139770506L96.37499204282408,127.59624034166336L97.73355396412038,121.60147160291672L98.92095847800925,126.89336856206258L100.11638599537036,121.33038292328517L101.3198365162037,112.79323468605676L102.56072771990742,128.32926174004874L103.8069675925926,120.85556745529175L105.01576678240743,119.98585879802702L106.39572337962963,113.34705809752145L107.69544994212964,126.26710752646129L108.90959780092592,127.56688197453816L110.12374565972222,119.62133795022964L111.35928819444445,128.31905166308084L112.56541304976851,133.86357476313907L113.76618923611112,121.82530204455055L114.97231409143518,126.91249340772629L116.11692925347222,130.7929615179698L117.28026475694445,132.07660029331842L118.4462745949074,116.52996460596721L119.61228443287037,124.22918319702147L121.12595775462964,129.14555211861926L122.35882595486112,120.82243452469507L123.59436848958333,118.03386439879736L124.86735170717593,123.98925811052322L126.12161458333334,133.06346694628397L127.35180844907408,132.49571750561395L128.56863064236111,135.52465230226517L129.79347583912036,129.29570237795514L130.98088035300927,124.42849655946097L132.20839988425925,124.47831024726231L133.45463975694443,133.92322341601053L134.6607646122685,123.08440029621123L135.87491247106482,134.2961080869039L137.0997576678241,130.04430264234543L138.38343822337964,120.64031183719635L139.66444444444446,123.04382373889287L140.9213816550926,131.62776718537012L142.13018084490741,127.20170468091963L143.35235170717593,123.86540085077286L144.57452256944444,133.08195292949677L145.85552879050928,129.98946597178778L147.10711733217593,124.76387590169907L148.2811501736111,134.59181934595108L149.56215639467592,124.61192041635513L150.73084056712963,122.44563748439153L151.97173177083334,123.26306492090224L153.14843894675928,127.63467172781624L154.34921513310186,125.5255874991417L155.5847576678241,119.48067684968312L156.78820818865742,122.81827598810195L157.95154369212963,129.93467619021735L159.144296875,128.17868947982788L160.38251374421299,125.47641853491464L161.61805627893517,128.7243073185285L162.86964482060185,118.64516784747441L164.07309534143516,127.16908752918243L165.3460785590278,126.89275900522867L166.57092375578702,133.18230122327805L167.95622902199077,135.4368233680725L169.27735026041668,122.48266806205113L170.45940610532406,131.2991633017858L171.6895999710648,131.86037758986154L172.87700448495372,136.0999039808909L174.0617346643519,130.21593391895294L175.30530020254633,122.91267524162929L176.5782834201389,127.49388754367827L177.7469675925926,130.10107934474945L178.918326099537,127.06026991208394L180.11107928240736,128.36434642473859L181.30383246527782,133.4723271926244L182.54204933449074,134.39411779244742L183.74282552083332,129.68484580516815L184.93825303819446,129.21225170294446L186.17379557291667,133.041399816672L187.37457175925925,125.19033124049504L188.5833709490741,128.9534537990888L189.8376338252315,131.03432257970172L191.09991970486115,138.61386289199194L192.27127821180557,132.89178878068924L193.4987977430556,125.9529044230779L194.71027126736112,122.84996708234151L195.9351164641204,123.85430574417114L197.18403067129628,113.0413419008255L198.4062015335648,129.36237265666327L199.70325376157408,128.8262908657392L200.92275028935188,130.88225573301315L202.1048061342593,131.1050253113111L203.31627965856484,122.9399118820826L204.49833550347222,129.10987546046576L205.6991116898148,132.69991318384805L206.87849320023153,126.58742378155388L208.05787471064818,125.62484562397002L209.21853587962963,132.41900126139322L210.36315104166667,128.19030622641245L211.5211378761574,127.86390612522762L212.71121672453708,123.23152035474776L213.93071325231483,128.7363636493683L215.15288411458334,127.04939752817154L216.35633463541666,128.89256844917932L217.5758311631944,132.2253849109014L218.77928168402775,128.87342602014542L220.0281958912037,134.34991906086603L221.31187644675927,127.95536895593008L222.56613932291665,121.39977862437566L223.79098451967593,136.68465654055277L225.02117838541665,134.73526448011398L226.23265190972228,131.46262417236966L227.47354311342593,129.51884120702744L228.68501663773148,125.8170904715856L229.87776982060186,128.9582833647728L231.06784866898147,122.1691507101059L232.2686248553241,135.1929947733879L233.43998336226855,133.49067836999893L234.61134186921296,119.99293903509775L235.766654369213,127.27618783712386L236.92464120370371,127.51609534025191L238.1307660590278,134.50219104687375L239.3449139178241,123.1683960556984L240.57243344907405,134.88224973281226L241.80262731481483,121.86497598886488L243.02212384259258,133.5628522435824L244.26301504629626,129.4703345497449L245.48786024305554,130.5341108640035L246.82235315393515,135.988243718942L248.0552213541667,125.26635587215422L249.25599754050927,128.67146929105124L250.4460763888889,130.63425401846567L251.66557291666672,129.77275093396503L252.84495442708337,127.84190346797308L254.0617766203704,134.15846546490988L255.22778645833336,133.75374903281528L256.47135199652774,128.39392165342966L257.6828255208333,132.50088701645532L258.89964771412036,126.43031050761542L260.0629832175926,144.11885271469754L261.29852575231484,119.06121969223022L262.5420912905093,132.12921559810638L263.72147280092594,124.72771863142647L264.90620298032405,125.77385882536568L266.07488715277776,126.02667252222697L267.24624565972226,131.85295154651004" style="fill: none;" fill="none"></path></g></g></g></g></g></g><g transform="translate(41, 177)" clip-path="url(#clip_1)"><clipPath id="clip_1"><rect width="288" height="23"></rect></clipPath><g><g><line x1="0" y1="0" x2="0" y2="5" style="visibility: inherit;" fill="rgb(0, 0, 0)" stroke="rgb(204, 204, 204)" stroke-width="1px"></line><line x1="19.255208333333332" y1="0" x2="19.255208333333332" y2="5" style="visibility: inherit;" fill="rgb(0, 0, 0)" stroke="rgb(204, 204, 204)" stroke-width="1px"></line><line x1="38.510416666666664" y1="0" x2="38.510416666666664" y2="5" style="visibility: inherit;" fill="rgb(0, 0, 0)" stroke="rgb(204, 204, 204)" stroke-width="1px"></line><line x1="57.765625" y1="0" x2="57.765625" y2="5" style="visibility: inherit;" fill="rgb(0, 0, 0)" stroke="rgb(204, 204, 204)" stroke-width="1px"></line><line x1="77.02083333333333" y1="0" x2="77.02083333333333" y2="5" style="visibility: inherit;" fill="rgb(0, 0, 0)" stroke="rgb(204, 204, 204)" stroke-width="1px"></line><line x1="96.27604166666667" y1="0" x2="96.27604166666667" y2="5" style="visibility: inherit;" fill="rgb(0, 0, 0)" stroke="rgb(204, 204, 204)" stroke-width="1px"></line><line x1="115.53125" y1="0" x2="115.53125" y2="5" style="visibility: inherit;" fill="rgb(0, 0, 0)" stroke="rgb(204, 204, 204)" stroke-width="1px"></line><line x1="134.78645833333334" y1="0" x2="134.78645833333334" y2="5" style="visibility: inherit;" fill="rgb(0, 0, 0)" stroke="rgb(204, 204, 204)" stroke-width="1px"></line><line x1="154.04166666666666" y1="0" x2="154.04166666666666" y2="5" style="visibility: inherit;" fill="rgb(0, 0, 0)" stroke="rgb(204, 204, 204)" stroke-width="1px"></line><line x1="173.29687500000003" y1="0" x2="173.29687500000003" y2="5" style="visibility: inherit;" fill="rgb(0, 0, 0)" stroke="rgb(204, 204, 204)" stroke-width="1px"></line><line x1="192.55208333333331" y1="0" x2="192.55208333333331" y2="5" style="visibility: inherit;" fill="rgb(0, 0, 0)" stroke="rgb(204, 204, 204)" stroke-width="1px"></line><line x1="211.80729166666666" y1="0" x2="211.80729166666666" y2="5" style="visibility: inherit;" fill="rgb(0, 0, 0)" stroke="rgb(204, 204, 204)" stroke-width="1px"></line><line x1="231.0625" y1="0" x2="231.0625" y2="5" style="visibility: inherit;" fill="rgb(0, 0, 0)" stroke="rgb(204, 204, 204)" stroke-width="1px"></line><line x1="250.31770833333337" y1="0" x2="250.31770833333337" y2="5" style="visibility: inherit;" fill="rgb(0, 0, 0)" stroke="rgb(204, 204, 204)" stroke-width="1px"></line><line x1="269.57291666666663" y1="0" x2="269.57291666666663" y2="5" style="visibility: inherit;" fill="rgb(0, 0, 0)" stroke="rgb(204, 204, 204)" stroke-width="1px"></line><line x1="288.828125" y1="0" x2="288.828125" y2="5" style="visibility: inherit;" fill="rgb(0, 0, 0)" stroke="rgb(204, 204, 204)" stroke-width="1px"></line></g><g transform="translate(0, 8)"><text x="0" y="0" dx="0em" dy="0.95em" style="text-anchor: middle; visibility: hidden; font-family: Roboto, sans-serif; font-size: 12px; font-weight: 200;" fill="rgb(33, 33, 33)" stroke="none" stroke-width="1px">-0.002</text><text x="19.255208333333332" y="0" dx="0em" dy="0.95em" style="text-anchor: middle; visibility: inherit; font-family: Roboto, sans-serif; font-size: 12px; font-weight: 200;" fill="rgb(33, 33, 33)" stroke="none" stroke-width="1px">0</text><text x="38.510416666666664" y="0" dx="0em" dy="0.95em" style="text-anchor: middle; visibility: hidden; font-family: Roboto, sans-serif; font-size: 12px; font-weight: 200;" fill="rgb(33, 33, 33)" stroke="none" stroke-width="1px">0.002</text><text x="57.765625" y="0" dx="0em" dy="0.95em" style="text-anchor: middle; visibility: inherit; font-family: Roboto, sans-serif; font-size: 12px; font-weight: 200;" fill="rgb(33, 33, 33)" stroke="none" stroke-width="1px">0.004</text><text x="77.02083333333333" y="0" dx="0em" dy="0.95em" style="text-anchor: middle; visibility: hidden; font-family: Roboto, sans-serif; font-size: 12px; font-weight: 200;" fill="rgb(33, 33, 33)" stroke="none" stroke-width="1px">0.006</text><text x="96.27604166666667" y="0" dx="0em" dy="0.95em" style="text-anchor: middle; visibility: inherit; font-family: Roboto, sans-serif; font-size: 12px; font-weight: 200;" fill="rgb(33, 33, 33)" stroke="none" stroke-width="1px">0.008</text><text x="115.53125" y="0" dx="0em" dy="0.95em" style="text-anchor: middle; visibility: hidden; font-family: Roboto, sans-serif; font-size: 12px; font-weight: 200;" fill="rgb(33, 33, 33)" stroke="none" stroke-width="1px">0.01</text><text x="134.78645833333334" y="0" dx="0em" dy="0.95em" style="text-anchor: middle; visibility: inherit; font-family: Roboto, sans-serif; font-size: 12px; font-weight: 200;" fill="rgb(33, 33, 33)" stroke="none" stroke-width="1px">0.012</text><text x="154.04166666666666" y="0" dx="0em" dy="0.95em" style="text-anchor: middle; visibility: hidden; font-family: Roboto, sans-serif; font-size: 12px; font-weight: 200;" fill="rgb(33, 33, 33)" stroke="none" stroke-width="1px">0.014</text><text x="173.29687500000003" y="0" dx="0em" dy="0.95em" style="text-anchor: middle; visibility: inherit; font-family: Roboto, sans-serif; font-size: 12px; font-weight: 200;" fill="rgb(33, 33, 33)" stroke="none" stroke-width="1px">0.016</text><text x="192.55208333333331" y="0" dx="0em" dy="0.95em" style="text-anchor: middle; visibility: hidden; font-family: Roboto, sans-serif; font-size: 12px; font-weight: 200;" fill="rgb(33, 33, 33)" stroke="none" stroke-width="1px">0.018</text><text x="211.80729166666666" y="0" dx="0em" dy="0.95em" style="text-anchor: middle; visibility: inherit; font-family: Roboto, sans-serif; font-size: 12px; font-weight: 200;" fill="rgb(33, 33, 33)" stroke="none" stroke-width="1px">0.02</text><text x="231.0625" y="0" dx="0em" dy="0.95em" style="text-anchor: middle; visibility: hidden; font-family: Roboto, sans-serif; font-size: 12px; font-weight: 200;" fill="rgb(33, 33, 33)" stroke="none" stroke-width="1px">0.022</text><text x="250.31770833333337" y="0" dx="0em" dy="0.95em" style="text-anchor: middle; visibility: inherit; font-family: Roboto, sans-serif; font-size: 12px; font-weight: 200;" fill="rgb(33, 33, 33)" stroke="none" stroke-width="1px">0.024</text><text x="269.57291666666663" y="0" dx="0em" dy="0.95em" style="text-anchor: middle; visibility: hidden; font-family: Roboto, sans-serif; font-size: 12px; font-weight: 200;" fill="rgb(33, 33, 33)" stroke="none" stroke-width="1px">0.026</text><text x="288.828125" y="0" dx="0em" dy="0.95em" style="text-anchor: middle; visibility: hidden; font-family: Roboto, sans-serif; font-size: 12px; font-weight: 200;" fill="rgb(33, 33, 33)" stroke="none" stroke-width="1px">0.028</text></g><line x1="0" y1="0" x2="288.828125" y2="0" fill="rgb(0, 0, 0)" stroke="rgb(204, 204, 204)" stroke-width="1px"></line></g></g></g></g></svg>